Coordinates
version=1
nRows=10
nColumns=40
inDegrees=yes

Units are S.I. units (second, meters, Newtons, ...)
Angles are in degrees.

endheader
time	pelvis_tilt	pelvis_list	pelvis_rotation	pelvis_tx	pelvis_ty	pelvis_tz	hip_flexion_r	hip_adduction_r	hip_rotation_r	knee_angle_r	knee_angle_r_beta	ankle_angle_r	subtalar_angle_r	mtp_angle_r	hip_flexion_l	hip_adduction_l	hip_rotation_l	knee_angle_l	knee_angle_l_beta	ankle_angle_l	subtalar_angle_l	mtp_angle_l	lumbar_extension	lumbar_bending	lumbar_rotation	arm_flex_r	arm_add_r	arm_rot_r	elbow_flex_r	pro_sup_r	wrist_flex_r	wrist_dev_r	arm_flex_l	arm_add_l	arm_rot_l	elbow_flex_l	pro_sup_l	wrist_flex_l	wrist_dev_l
     47.54000000	     -4.02991153	     -5.04961956	      0.73841075	      0.93047528	      0.92177442	      0.55719630	     16.78982468	      4.33850133	     -8.78612300	     24.31044941	     24.31044941	     13.34354326	     -4.23195142	     -2.37800238	     20.95503852	    -11.79696959	      4.45852628	     62.07806828	     62.07806828	      9.03629369	    -16.45655643	      6.65769905	     -9.45830777	      5.51747404	     -0.26551310	     12.12721946	    -19.68379207	    -11.12388434	     53.02019351	     45.40211678	      0.00000000	      0.00000000	     12.89000296	     -9.92545213	      2.07784309	     35.00236025	     45.54613553	      0.00000000	      0.00000000
     47.55871429	     -3.84134944	     -5.13433031	      1.37496513	      0.92916771	      0.92102861	      0.55912226	     16.51875733	      4.59299132	     -8.74082315	     24.75790666	     24.75790666	     13.82461914	     -5.30171160	     -2.38753741	     22.95106928	    -11.90335219	      4.96750469	     63.08252311	     63.08252311	      9.35701957	    -17.97996583	      7.60607921	     -9.53866655	      5.36875826	     -0.33121630	     14.40933947	    -19.37917095	    -11.39261292	     54.27514143	     45.38314305	      0.00000000	      0.00000000	     11.13989511	    -10.03816485	      2.31558360	     33.25420863	     45.49879288	      0.00000000	      0.00000000
     47.57742857	     -3.57508149	     -5.33804706	      2.05328150	      0.92782924	      0.92024811	      0.56106174	     16.13443428	      4.99116754	     -8.74756449	     25.14177536	     25.14177536	     14.31174811	     -6.34695881	     -2.34750505	     24.92297328	    -12.24099884	      5.35023332	     63.88268002	     63.88268002	     10.13218803	    -18.72533959	      9.15730291	     -9.74434381	      5.37329019	     -0.30961434	     16.78991720	    -19.14342929	    -11.69887676	     55.61730674	     45.36289967	      0.00000000	      0.00000000	      9.42711808	    -10.13669979	      2.57028818	     31.58853912	     45.44913127	      0.00000000	      0.00000000
     47.59614286	     -3.33020145	     -5.38037034	      2.65024792	      0.92644959	      0.91962353	      0.56276275	     15.76183644	      5.23123954	     -8.64464115	     25.51001388	     25.51001388	     14.84412882	     -7.37109462	     -1.96067966	     26.89762255	    -12.21694420	      5.72785402	     64.48692370	     64.48692370	     12.75516068	    -19.01291927	     15.91984008	     -9.92900703	      5.19636390	      0.03621407	     19.12443429	    -19.08337260	    -12.33699969	     56.58835538	     45.38003031	      0.00000000	      0.00000000	      8.13874320	    -10.11691272	      3.22111186	     29.10721475	     45.39080850	      0.00000000	      0.00000000
     47.61485714	     -3.10314884	     -5.50111994	      3.31642826	      0.92501741	      0.91884289	      0.56427828	     15.40795914	      5.51415798	     -8.72191854	     25.84465546	     25.84465546	     15.28415401	     -8.24233609	     -1.89845979	     28.62076898	    -12.46409577	      5.78943977	     64.19163568	     64.19163568	     13.43852859	    -19.27748927	     16.89314781	    -10.13944358	      5.13642536	      0.02170834	     21.56550362	    -18.89000090	    -12.63631961	     58.15542712	     45.35223381	      0.00000000	      0.00000000	      6.30623394	    -10.29745885	      3.43275578	     27.83279747	     45.34289938	      0.00000000	      0.00000000
     47.63357143	     -2.90494917	     -5.59533032	      3.94477339	      0.92348486	      0.91811387	      0.56543323	     15.08703444	      5.75927460	     -8.76469056	     26.15437126	     26.15437126	     15.69158195	     -9.11658000	     -1.76129939	     30.18024450	    -12.59062790	      5.76484328	     63.30251118	     63.30251118	     14.22321508	    -19.40549772	     18.31443782	    -10.34815457	      5.07736188	      0.09841652	     24.08311757	    -18.79274088	    -12.91615390	     59.62351673	     45.32795700	      0.00000000	      0.00000000	      4.59340599	    -10.41479991	      3.68058944	     26.65164370	     45.28952825	      0.00000000	      0.00000000
     47.65228571	     -2.77277532	     -5.62406308	      4.55388028	      0.92185602	      0.91750732	      0.56616542	     14.81193736	      5.87998048	     -8.89486340	     26.41223590	     26.41223590	     16.06168057	     -9.77562970	     -1.62109304	     31.52188625	    -12.53804371	      5.63623590	     61.69775179	     61.69775179	     14.84657161	    -19.46002968	     19.48120185	    -10.50603663	      4.96972454	      0.30008422	     26.53711941	    -18.87346361	    -13.14330538	     60.97678429	     45.30554504	      0.00000000	      0.00000000	      2.99288846	    -10.49243277	      3.91810116	     25.72354629	     45.23531841	      0.00000000	      0.00000000
     47.67100000	     -2.72665713	     -5.59741436	      5.14561425	      0.92011680	      0.91697854	      0.56642996	     14.59521078	      5.88914865	     -9.09123934	     26.59868083	     26.59868083	     16.40582624	    -10.28244357	     -1.48710463	     32.65467374	    -12.31036463	      5.42161287	     59.42603267	     59.42603267	     15.12722247	    -19.47559873	     20.17963991	    -10.60085035	      4.83471206	      0.49202105	     29.03484773	    -19.07340306	    -13.30779910	     62.35866060	     45.28000056	      0.00000000	      0.00000000	      1.43791068	    -10.51955117	      4.14681297	     25.02104130	     45.17857213	      0.00000000	      0.00000000
     47.68971429	     -2.76281865	     -5.51877504	      5.72924717	      0.91826417	      0.91657632	      0.56621749	     14.42416018	      5.79025544	     -9.34135056	     26.70795662	     26.70795662	     16.71022528	    -10.64888671	     -1.34798918	     33.55271300	    -11.88081399	      5.20670274	     56.51667707	     56.51667707	     15.03977820	    -19.45214217	     20.38617509	    -10.62347889	      4.68779917	      0.64836861	     31.56717385	    -19.28812449	    -13.36863852	     63.80626584	     45.24878315	      0.00000000	      0.00000000	     -0.09360275	    -10.52341581	      4.38081435	     24.53260468	     45.11742749	      0.00000000	      0.00000000
     47.70842857	     -2.87721547	     -5.39692940	      6.28694443	      0.91633804	      0.91634352	      0.56559631	     14.28345758	      5.59438547	     -9.65391267	     26.73232020	     26.73232020	     16.98548978	    -10.83555171	     -1.17104231	     34.18920924	    -11.26795086	      5.03899678	     53.03009698	     53.03009698	     14.45353433	    -19.38373493	     19.89163233	    -10.61044081	      4.51558294	      0.64989841	     34.17600459	    -19.43749507	    -13.23814670	     65.41036146	     45.20747776	      0.00000000	      0.00000000	     -1.70359492	    -10.51776085	      4.69359079	     24.33244534	     45.03880925	      0.00000000	      0.00000000
